<?xml version="1.0" encoding="utf-8"?>
<!-- Generator: Adobe Illustrator 19.2.1, SVG Export Plug-In . SVG Version: 6.00 Build 0)  -->
<svg version="1.1" id="_ÎÓÈ_4" xmlns="http://www.w3.org/2000/svg" xmlns:xlink="http://www.w3.org/1999/xlink" x="0px" y="0px"
	 viewBox="0 0 1381.2 1381.2" style="enable-background:new 0 0 1381.2 1381.2;" xml:space="preserve">
<style type="text/css">
	.st0{opacity:0.75;fill:#FFE500;}
	.st1{opacity:0.75;fill:none;}
	.st2{opacity:0.75;fill:#FFF57D;}
</style>
<title>plp_bg_burst</title>
<rect class="st0" width="1381.2" height="1381.2"/>
<polygon class="st1" points="0,733.4 0,798.2 684,701.9 "/>
<polygon class="st1" points="1047.2,0 967.3,0 684,701.9 "/>
<polygon class="st1" points="903.4,0 833,0 684,701.9 "/>
<polygon class="st1" points="596.2,1381.2 660.4,1381.2 684,701.9 "/>
<polygon class="st1" points="0,855.2 0,924.3 684,701.9 "/>
<polygon class="st1" points="1381.2,59.9 1381.2,0 1315.7,0 684,701.9 "/>
<polygon class="st1" points="0,613.5 0,678.2 684,701.9 "/>
<polygon class="st1" points="471.5,1381.2 539.7,1381.2 684,701.9 "/>
<polygon class="st1" points="1219.9,0 1122.3,0 684,701.9 "/>
<polygon class="st1" points="391.2,0 310.5,0 684,701.9 "/>
<polygon class="st1" points="774.7,0 708.3,0 684,701.9 "/>
<polygon class="st1" points="37.7,0 0,0 0,86.4 684,701.9 "/>
<polygon class="st1" points="1381.2,255.4 1381.2,156.9 684,701.9 "/>
<polygon class="st1" points="0,179.7 0,274.8 684,701.9 "/>
<polygon class="st1" points="526.6,0 455.7,0 684,701.9 "/>
<polygon class="st1" points="0,347.9 0,425.8 684,701.9 "/>
<polygon class="st1" points="0,488 0,556.7 684,701.9 "/>
<polygon class="st1" points="651.6,0 585.1,0 684,701.9 "/>
<polygon class="st1" points="1381.2,1062.8 1381.2,983.4 684,701.9 "/>
<polygon class="st1" points="1381.2,919.9 1381.2,849.9 684,701.9 "/>
<polygon class="st1" points="332.4,1381.2 409.7,1381.2 684,701.9 "/>
<polygon class="st1" points="967.2,1381.2 1045.3,1381.2 684,701.9 "/>
<polygon class="st1" points="1381.2,792 1381.2,726.1 684,701.9 "/>
<polygon class="st1" points="836.2,1381.2 904.8,1381.2 684,701.9 "/>
<polygon class="st1" points="1381.2,1234.3 1381.2,1137.4 684,701.9 "/>
<polygon class="st1" points="684,701.9 1309.4,1381.2 1381.2,1381.2 1381.2,1329.4 "/>
<polygon class="st1" points="234.4,0 135.3,0 684,701.9 "/>
<polygon class="st1" points="1119,1381.2 1214.9,1381.2 684,701.9 "/>
<polygon class="st1" points="1381.2,545.6 1381.2,475.2 684,701.9 "/>
<polygon class="st1" points="165.3,1381.2 259.7,1381.2 684,701.9 "/>
<polygon class="st1" points="0,1331.6 0,1381.2 72.6,1381.2 684,701.9 "/>
<polygon class="st1" points="1381.2,411.1 1381.2,331 684,701.9 "/>
<polygon class="st1" points="0,1139.9 0,1236.5 684,701.9 "/>
<polygon class="st1" points="0,987.1 0,1065.8 684,701.9 "/>
<polygon class="st1" points="1381.2,669.8 1381.2,603.7 684,701.9 "/>
<polygon class="st1" points="715.2,1381.2 779.6,1381.2 684,701.9 "/>
<polygon class="st2" points="708.3,0 651.6,0 684,701.9 "/>
<polygon class="st2" points="585.1,0 526.6,0 684,701.9 "/>
<polygon class="st2" points="455.7,0 391.2,0 684,701.9 "/>
<polygon class="st2" points="310.5,0 234.4,0 684,701.9 "/>
<polygon class="st2" points="135.3,0 37.7,0 684,701.9 "/>
<polygon class="st2" points="0,86.4 0,179.7 684,701.9 "/>
<polygon class="st2" points="0,274.8 0,347.9 684,701.9 "/>
<polygon class="st2" points="0,425.8 0,488 684,701.9 "/>
<polygon class="st2" points="0,556.7 0,613.5 684,701.9 "/>
<polygon class="st2" points="0,678.2 0,733.4 684,701.9 "/>
<polygon class="st2" points="0,798.2 0,855.2 684,701.9 "/>
<polygon class="st2" points="0,924.3 0,987.1 684,701.9 "/>
<polygon class="st2" points="0,1065.8 0,1139.9 684,701.9 "/>
<polygon class="st2" points="0,1236.5 0,1331.6 684,701.9 "/>
<polygon class="st2" points="72.6,1381.2 165.3,1381.2 684,701.9 "/>
<polygon class="st2" points="259.7,1381.2 332.4,1381.2 684,701.9 "/>
<polygon class="st2" points="409.7,1381.2 471.5,1381.2 684,701.9 "/>
<polygon class="st2" points="539.7,1381.2 596.2,1381.2 684,701.9 "/>
<polygon class="st2" points="660.4,1381.2 715.2,1381.2 684,701.9 "/>
<polygon class="st2" points="779.6,1381.2 836.2,1381.2 684,701.9 "/>
<polygon class="st2" points="904.8,1381.2 967.2,1381.2 684,701.9 "/>
<polygon class="st2" points="1045.3,1381.2 1119,1381.2 684,701.9 "/>
<polygon class="st2" points="1214.9,1381.2 1309.4,1381.2 684,701.9 "/>
<polygon class="st2" points="1381.2,1329.4 1381.2,1234.3 684,701.9 "/>
<polygon class="st2" points="1381.2,1137.4 1381.2,1062.8 684,701.9 "/>
<polygon class="st2" points="1381.2,983.4 1381.2,919.9 684,701.9 "/>
<polygon class="st2" points="1381.2,849.9 1381.2,792 684,701.9 "/>
<polygon class="st2" points="1381.2,726.1 1381.2,669.8 684,701.9 "/>
<polygon class="st2" points="1381.2,603.7 1381.2,545.6 684,701.9 "/>
<polygon class="st2" points="1381.2,475.2 1381.2,411.1 684,701.9 "/>
<polygon class="st2" points="1381.2,331 1381.2,255.4 684,701.9 "/>
<polygon class="st2" points="1381.2,156.9 1381.2,59.9 684,701.9 "/>
<polygon class="st2" points="1315.7,0 1219.9,0 684,701.9 "/>
<polygon class="st2" points="1122.3,0 1047.2,0 684,701.9 "/>
<polygon class="st2" points="967.3,0 903.4,0 684,701.9 "/>
<polygon class="st2" points="833,0 774.7,0 684,701.9 "/>
</svg>
