<svg id="_ÎÓÈ_4" data-name="—ÎÓÈ_4" xmlns="http://www.w3.org/2000/svg" viewBox="0 0 1381.21 1381.21"><defs><style>.cls-1{fill:#ffe500;}.cls-2{fill:none;}.cls-3{fill:#fff57d;}</style></defs><title>plp_bg_burst</title><rect class="cls-1" width="1381.21" height="1381.21"/><polygon class="cls-2" points="0 733.39 0 798.2 683.95 701.91 0 733.39"/><polygon class="cls-2" points="1047.22 0 967.34 0 683.95 701.91 1047.22 0"/><polygon class="cls-2" points="903.43 0 832.97 0 683.95 701.91 903.43 0"/><polygon class="cls-2" points="596.16 1381.21 660.39 1381.21 683.95 701.91 596.16 1381.21"/><polygon class="cls-2" points="0 855.24 0 924.31 683.95 701.91 0 855.24"/><polygon class="cls-2" points="1381.21 59.93 1381.21 0 1315.65 0 683.95 701.91 1381.21 59.93"/><polygon class="cls-2" points="0 613.51 0 678.19 683.95 701.91 0 613.51"/><polygon class="cls-2" points="471.54 1381.21 539.73 1381.21 683.95 701.91 471.54 1381.21"/><polygon class="cls-2" points="1219.9 0 1122.32 0 683.95 701.91 1219.9 0"/><polygon class="cls-2" points="391.25 0 310.52 0 683.95 701.91 391.25 0"/><polygon class="cls-2" points="774.66 0 708.29 0 683.95 701.91 774.66 0"/><polygon class="cls-2" points="37.7 0 0 0 0 86.37 683.95 701.91 37.7 0"/><polygon class="cls-2" points="1381.21 255.37 1381.21 156.88 683.95 701.91 1381.21 255.37"/><polygon class="cls-2" points="0 179.67 0 274.75 683.95 701.91 0 179.67"/><polygon class="cls-2" points="526.59 0 455.7 0 683.95 701.91 526.59 0"/><polygon class="cls-2" points="0 347.93 0 425.76 683.95 701.91 0 347.93"/><polygon class="cls-2" points="0 488.04 0 556.7 683.95 701.91 0 488.04"/><polygon class="cls-2" points="651.63 0 585.13 0 683.95 701.91 651.63 0"/><polygon class="cls-2" points="1381.21 1062.78 1381.21 983.43 683.95 701.91 1381.21 1062.78"/><polygon class="cls-2" points="1381.21 919.93 1381.21 849.94 683.95 701.91 1381.21 919.93"/><polygon class="cls-2" points="332.37 1381.21 409.68 1381.21 683.95 701.91 332.37 1381.21"/><polygon class="cls-2" points="967.22 1381.21 1045.35 1381.21 683.95 701.91 967.22 1381.21"/><polygon class="cls-2" points="1381.21 792.02 1381.21 726.09 683.95 701.91 1381.21 792.02"/><polygon class="cls-2" points="836.24 1381.21 904.85 1381.21 683.95 701.91 836.24 1381.21"/><polygon class="cls-2" points="1381.21 1234.31 1381.21 1137.37 683.95 701.91 1381.21 1234.31"/><polygon class="cls-2" points="683.95 701.91 1309.39 1381.21 1381.21 1381.21 1381.21 1329.42 683.95 701.91"/><polygon class="cls-2" points="234.44 0 135.29 0 683.95 701.91 234.44 0"/><polygon class="cls-2" points="1118.98 1381.21 1214.94 1381.21 683.95 701.91 1118.98 1381.21"/><polygon class="cls-2" points="1381.21 545.59 1381.21 475.17 683.95 701.91 1381.21 545.59"/><polygon class="cls-2" points="165.26 1381.21 259.7 1381.21 683.95 701.91 165.26 1381.21"/><polygon class="cls-2" points="0 1331.63 0 1381.21 72.6 1381.21 683.95 701.91 0 1331.63"/><polygon class="cls-2" points="1381.21 411.15 1381.21 330.95 683.95 701.91 1381.21 411.15"/><polygon class="cls-2" points="0 1139.91 0 1236.53 683.95 701.91 0 1139.91"/><polygon class="cls-2" points="0 987.11 0 1065.78 683.95 701.91 0 987.11"/><polygon class="cls-2" points="1381.21 669.8 1381.21 603.74 683.95 701.91 1381.21 669.8"/><polygon class="cls-2" points="715.22 1381.21 779.58 1381.21 683.95 701.91 715.22 1381.21"/><polygon class="cls-3" points="708.29 0 651.63 0 683.95 701.91 708.29 0"/><polygon class="cls-3" points="585.13 0 526.59 0 683.95 701.91 585.13 0"/><polygon class="cls-3" points="455.7 0 391.25 0 683.95 701.91 455.7 0"/><polygon class="cls-3" points="310.52 0 234.44 0 683.95 701.91 310.52 0"/><polygon class="cls-3" points="135.29 0 37.7 0 683.95 701.91 135.29 0"/><polygon class="cls-3" points="0 86.37 0 179.67 683.95 701.91 0 86.37"/><polygon class="cls-3" points="0 274.75 0 347.93 683.95 701.91 0 274.75"/><polygon class="cls-3" points="0 425.76 0 488.04 683.95 701.91 0 425.76"/><polygon class="cls-3" points="0 556.7 0 613.51 683.95 701.91 0 556.7"/><polygon class="cls-3" points="0 678.19 0 733.39 683.95 701.91 0 678.19"/><polygon class="cls-3" points="0 798.2 0 855.24 683.95 701.91 0 798.2"/><polygon class="cls-3" points="0 924.31 0 987.11 683.95 701.91 0 924.31"/><polygon class="cls-3" points="0 1065.78 0 1139.91 683.95 701.91 0 1065.78"/><polygon class="cls-3" points="0 1236.53 0 1331.63 683.95 701.91 0 1236.53"/><polygon class="cls-3" points="72.6 1381.21 165.26 1381.21 683.95 701.91 72.6 1381.21"/><polygon class="cls-3" points="259.7 1381.21 332.37 1381.21 683.95 701.91 259.7 1381.21"/><polygon class="cls-3" points="409.68 1381.21 471.54 1381.21 683.95 701.91 409.68 1381.21"/><polygon class="cls-3" points="539.73 1381.21 596.16 1381.21 683.95 701.91 539.73 1381.21"/><polygon class="cls-3" points="660.39 1381.21 715.22 1381.21 683.95 701.91 660.39 1381.21"/><polygon class="cls-3" points="779.58 1381.21 836.24 1381.21 683.95 701.91 779.58 1381.21"/><polygon class="cls-3" points="904.85 1381.21 967.22 1381.21 683.95 701.91 904.85 1381.21"/><polygon class="cls-3" points="1045.35 1381.21 1118.98 1381.21 683.95 701.91 1045.35 1381.21"/><polygon class="cls-3" points="1214.94 1381.21 1309.39 1381.21 683.95 701.91 1214.94 1381.21"/><polygon class="cls-3" points="1381.21 1329.42 1381.21 1234.31 683.95 701.91 1381.21 1329.42"/><polygon class="cls-3" points="1381.21 1137.37 1381.21 1062.78 683.95 701.91 1381.21 1137.37"/><polygon class="cls-3" points="1381.21 983.43 1381.21 919.93 683.95 701.91 1381.21 983.43"/><polygon class="cls-3" points="1381.21 849.94 1381.21 792.02 683.95 701.91 1381.21 849.94"/><polygon class="cls-3" points="1381.21 726.09 1381.21 669.8 683.95 701.91 1381.21 726.09"/><polygon class="cls-3" points="1381.21 603.74 1381.21 545.59 683.95 701.91 1381.21 603.74"/><polygon class="cls-3" points="1381.21 475.17 1381.21 411.15 683.95 701.91 1381.21 475.17"/><polygon class="cls-3" points="1381.21 330.95 1381.21 255.37 683.95 701.91 1381.21 330.95"/><polygon class="cls-3" points="1381.21 156.88 1381.21 59.93 683.95 701.91 1381.21 156.88"/><polygon class="cls-3" points="1315.65 0 1219.9 0 683.95 701.91 1315.65 0"/><polygon class="cls-3" points="1122.32 0 1047.22 0 683.95 701.91 1122.32 0"/><polygon class="cls-3" points="967.34 0 903.43 0 683.95 701.91 967.34 0"/><polygon class="cls-3" points="832.97 0 774.66 0 683.95 701.91 832.97 0"/></svg>